REM MD5 448462f6ff272a76e28530ff55dd3ec2
FILE "Dengeki PlayStation D5 (Japan).bin" BINARY
  TRACK 01 MODE2/2352
    INDEX 01 00:00:00
  TRACK 02 AUDIO
    INDEX 00 57:32:23
    INDEX 01 57:34:23
  TRACK 03 AUDIO
    INDEX 00 61:52:09
    INDEX 01 61:54:09
  TRACK 04 AUDIO
    INDEX 00 63:40:46
    INDEX 01 63:42:46
  TRACK 05 AUDIO
    INDEX 00 66:03:11
    INDEX 01 66:05:11
REM LEADOUT 69:35:11
